<?xml version="1.0" encoding="UTF-8" standalone="no"?>
<svg
   xmlns:dc="http://purl.org/dc/elements/1.1/"
   xmlns:cc="http://creativecommons.org/ns#"
   xmlns:rdf="http://www.w3.org/1999/02/22-rdf-syntax-ns#"
   xmlns:svg="http://www.w3.org/2000/svg"
   xmlns="http://www.w3.org/2000/svg"
   xmlns:sodipodi="http://sodipodi.sourceforge.net/DTD/sodipodi-0.dtd"
   xmlns:inkscape="http://www.inkscape.org/namespaces/inkscape"
   viewBox="0 0 45 45"
   version="1.1"
   id="svg27"
   sodipodi:docname="Dorset council logo_white_d.svg"
   width="45"
   height="45"
   inkscape:version="1.0 (4035a4fb49, 2020-05-01)">
  <metadata
     id="metadata33">
    <rdf:RDF>
      <cc:Work
         rdf:about="">
        <dc:format>image/svg+xml</dc:format>
        <dc:type
           rdf:resource="http://purl.org/dc/dcmitype/StillImage" />
        <dc:title>Dorset council logo colour</dc:title>
      </cc:Work>
    </rdf:RDF>
  </metadata>
  <defs
     id="defs31" />
  <sodipodi:namedview
     inkscape:pagecheckerboard="true"
     inkscape:document-rotation="0"
     pagecolor="#ffffff"
     bordercolor="#666666"
     borderopacity="1"
     objecttolerance="10"
     gridtolerance="10"
     guidetolerance="10"
     inkscape:pageopacity="0"
     inkscape:pageshadow="2"
     inkscape:window-width="2400"
     inkscape:window-height="1271"
     id="namedview29"
     showgrid="false"
     inkscape:zoom="11.877909"
     inkscape:cx="41.025829"
     inkscape:cy="42.028698"
     inkscape:window-x="2391"
     inkscape:window-y="-9"
     inkscape:window-maximized="1"
     inkscape:current-layer="svg27" />
  <title
     id="title2">Dorset council logo colour</title>
  <g
     id="g43"
     transform="matrix(0.16675083,0,0,0.16675083,5.6638737,2.0654463)"
     style="fill:#ffffff;fill-opacity:1">
    <g
       style="fill:#ffffff;fill-opacity:1"
       data-name="dark green D"
       id="dark_green_D">
      <path
         style="fill:#ffffff;fill-opacity:1"
         id="path36"
         transform="translate(-133.29,-175.09)"
         d="m 157.79,263.76 a 116.77,116.77 0 0 0 -24.29,-2.38 v 34.51 a 213,213 0 0 1 84.12,-4.82 c -23.23,-16.92 -44.51,-24.23 -59.83,-27.31 z"
         class="cls-1" />
    </g>
    <g
       style="fill:#ffffff;fill-opacity:1"
       data-name="Light green D"
       id="Light_green_D">
      <path
         style="fill:#ffffff;fill-opacity:1"
         id="path39"
         transform="translate(-133.29,-175.09)"
         d="M 133.5,420.18 H 207 a 129,129 0 0 0 49.79,-9.63 130.61,130.61 0 0 0 40.79,-26.25 122.67,122.67 0 0 0 21,-26.54 C 244.9,291 166.79,303 133.5,312.68 Z"
         class="cls-1" />
    </g>
    <g
       style="fill:#ffffff;fill-opacity:1"
       data-name="Teal D"
       id="Teal_D">
      <path
         style="fill:#ffffff;fill-opacity:1"
         id="path42"
         transform="translate(-133.29,-175.09)"
         d="M 335.22,297.64 A 114.6,114.6 0 0 0 325.12,250 c -0.23,-0.51 -0.5,-1 -0.74,-1.52 -25.45,-6.89 -66.61,-9.8 -105.58,23.5 a 217.22,217.22 0 0 1 33.68,27.45 c 24,8.08 49.09,21.59 73.74,43.17 a 114.62,114.62 0 0 0 9,-44.96 z"
         class="cls-1" />
    </g>
    <g
       style="fill:#ffffff;fill-opacity:1"
       data-name="blue D"
       id="blue_D">
      <path
         style="fill:#ffffff;fill-opacity:1"
         id="path45"
         transform="translate(-133.29,-175.09)"
         d="M 297.56,211 A 131,131 0 0 0 256.77,184.74 129.37,129.37 0 0 0 207,175.09 H 133.5 L 133.29,245 c 15.69,-0.21 41.26,2.61 70.78,18.24 38.25,-35.1 79.53,-38.09 109.62,-33.31 A 122.92,122.92 0 0 0 297.56,211 Z"
         class="cls-1" />
    </g>
  </g>
</svg>
